<svg class="custom-icon" xmlns="http://www.w3.org/2000/svg" viewBox="0 0 100 100" style="height:100px;width:100px"><circle class="outer-shape" cx="50" cy="50" r="48" fill="#F9A110"/><path class="inner-shape" d="M25.54 67.114zm11.25-14.57c4.402.13 7.355-4.436 6.596-10.202-.76-5.765-4.948-10.392-9.35-10.523-4.404-.133-7.358 4.28-6.597 10.046.76 5.764 4.943 10.545 9.35 10.676zM74.5 37.75v-4.08c0-4.494-3.675-8.17-8.167-8.17H33.67c-4.416 0-8.04 3.553-8.163 7.94 2.793-2.458 6.667-4.512 10.665-4.512h17.095l-3.825 3.235h-5.42c3.594 1.38 5.51 5.557 5.51 9.844 0 3.6-2 6.696-4.827 8.898-2.76 2.148-3.282 3.048-3.282 4.875.002 1.558 2.956 4.21 4.5 5.3 4.517 3.185 5.978 6.14 5.978 11.076 0 .785-.096 1.57-.29 2.342h14.727c4.492 0 8.166-3.673 8.166-8.168V40.814h-9.187V50H62.25v-9.19h-9.186v-3.06h9.187v-9.187h3.064v9.187H74.5zm-40.105 24.4c1.035 0 1.982-.028 2.964-.028-1.3-1.26-2.33-2.804-2.33-4.707 0-1.13.363-2.217.87-3.183a22.78 22.78 0 0 1-1.586.048c-3.558 0-6.58-1.153-8.815-3.056v12.87c2.557-1.213 5.593-1.943 8.894-1.943zm-8.73 5.806a8.083 8.083 0 0 1-.002 0zm21.63 3.137c-.722-2.813-3.276-4.208-6.838-6.678a14.32 14.32 0 0 0-4.253-.68c-4.29-.046-8.284 1.672-10.538 4.23.762 3.717 4.07 6.533 8.002 6.533h13.707c.086-.533.13-1.083.13-1.648a7.72 7.72 0 0 0-.21-1.756z" fill="#F7F7F7"/></svg>