<svg class="custom-icon" xmlns="http://www.w3.org/2000/svg" viewBox="0 0 100 100" style="height:100px;width:100px"><circle class="outer-shape" cx="50" cy="50" r="48" fill="#F9A110"/><path class="inner-shape" d="M66.27 25.5H33.73c-4.526 0-8.23 3.704-8.23 8.23v32.54c0 4.526 3.704 8.23 8.23 8.23h32.54c4.526 0 8.23-3.704 8.23-8.23V33.73c0-4.526-3.704-8.23-8.23-8.23zM43.874 65.313H37.75v-21.44h6.125v21.44zm-3.063-24.5a3.064 3.064 0 1 1 .004-6.127 3.064 3.064 0 0 1-.003 6.127zm24.5 24.5h-6.123v-12.25a3.063 3.063 0 0 0-6.126 0v12.25h-6.123v-21.44h6.124v3.804c1.265-1.735 3.196-3.803 5.36-3.803 3.807 0 6.89 3.428 6.89 7.656v13.782z" fill="#F7F7F7"/></svg>