<svg class="custom-icon" xmlns="http://www.w3.org/2000/svg" viewBox="0 0 100 100" style="height:100px;width:100px"><circle class="outer-shape" cx="50" cy="50" r="48" fill="#F9A110"/><path class="inner-shape" d="M74.5 34.714a20.024 20.024 0 0 1-5.773 1.592 10.132 10.132 0 0 0 4.42-5.595c-1.942 1.16-4.093 2-6.383 2.456a10.015 10.015 0 0 0-7.338-3.193c-5.552 0-10.054 4.527-10.054 10.11 0 .794.09 1.565.26 2.306-8.355-.424-15.762-4.45-20.72-10.567a10.104 10.104 0 0 0-1.362 5.084 10.12 10.12 0 0 0 4.473 8.417 9.956 9.956 0 0 1-4.553-1.264v.126c0 4.9 3.464 8.986 8.063 9.916a10.05 10.05 0 0 1-4.54.173c1.28 4.017 4.992 6.94 9.39 7.023A20.09 20.09 0 0 1 27.9 65.626c-.814 0-1.614-.048-2.4-.14a28.348 28.348 0 0 0 15.41 4.543c18.49 0 28.603-15.41 28.603-28.774 0-.438-.01-.874-.03-1.308a20.562 20.562 0 0 0 5.017-5.236z" fill="#F7F7F7"/></svg>