<svg xmlns="http://www.w3.org/2000/svg" width="53.417" height="53.99" viewBox="346.5 473.844 53.417 53.99"><g transform="translate(115.624 74.25)"><path fill="#656565" d="M236.654 400.587h41.954c2.634 0 4.77 1.797 4.77 4.012v44.02c0 2.216-2.135 4.012-4.77 4.012h-41.954c-2.634 0-4.77-1.796-4.77-4.012V404.6c0-2.216 2.135-4.013 4.77-4.013z"/><path fill="#D6D6D6" d="M272.074 404.453h11.28v34.563h-11.28z"/><linearGradient id="a" gradientUnits="userSpaceOnUse" x1="-885.376" y1="640.055" x2="-888.407" y2="652.682" gradientTransform="matrix(.2087 0 0 -.208 461.34 537.548)"><stop offset="0" stop-color="#D6D6D6"/><stop offset="1" stop-color="#656565"/></linearGradient><path fill="url(#a)" d="M274.235 407.467l9.094-2.972c-.362-2.856-2.33-3.846-5.07-3.937-3.646.105-7.203.26-9.094 1.337l5.07 5.572z"/><path fill="#929292" d="M240.976 439.646h33.47v12.975h-33.47z"/><linearGradient id="b" gradientUnits="userSpaceOnUse" x1="2230.76" y1="454.898" x2="2250.806" y2="439.24" gradientTransform="matrix(-.2087 0 0 -.208 744.232 537.548)"><stop offset="0" stop-color="#D6D6D6"/><stop offset="1" stop-color="#939393"/></linearGradient><path fill="url(#b)" d="M272.535 436.6l10.805 1.155.04 10.506c-.005 2.71-2.167 4.267-4.4 4.36l-4.81-.052-5.325-12.345 3.69-3.623z"/><linearGradient id="c" gradientUnits="userSpaceOnUse" x1="-1084.899" y1="454.406" x2="-1061.996" y2="438.748" gradientTransform="matrix(.2087 0 0 -.208 461.34 537.548)"><stop offset="0" stop-color="#656565"/><stop offset="1" stop-color="#939393"/></linearGradient><path fill="url(#c)" d="M239.395 436.495l-7.484 1.26-.04 10.507c.006 2.71 2.168 4.266 4.402 4.36l4.81-.053 1.687-12.293-3.375-3.782z"/><path fill="#F1F1F1" d="M243.424 401.246h26.994c2.635 0 4.77 2.128 4.77 4.754v30.736c0 2.626-2.135 4.755-4.77 4.755h-26.994c-2.635 0-4.77-2.128-4.77-4.754V406c0-2.627 2.135-4.754 4.77-4.754z"/><linearGradient id="d" gradientUnits="userSpaceOnUse" x1="-1143.311" y1="401.052" x2="-1066.761" y2="401.052" gradientTransform="matrix(.2087 0 0 -.208 488.07 504.787)"><stop offset="0" stop-color="#D8D8D8"/><stop offset="1" stop-color="#B1B1B1"/></linearGradient><path fill="url(#d)" d="M243.424 401.246h25.94c2.635 0 4.77 2.128 4.77 4.754v30.736c0 2.626-2.135 4.755-4.77 4.755h-25.94c-2.635 0-4.77-2.128-4.77-4.754V406c0-2.627 2.135-4.754 4.77-4.754z"/><text transform="matrix(1.0034 0 0 1 243.4 419.044)" font-family="'DejaVuSansCondensed'" font-size="13.976">C</text><path fill="none" stroke="#000" stroke-width="1.5" d="M236.654 400.587h41.954c2.634 0 4.77 1.797 4.77 4.012v44.02c0 2.216-2.135 4.012-4.77 4.012h-41.954c-2.634 0-4.77-1.796-4.77-4.012V404.6c0-2.216 2.135-4.013 4.77-4.013z"/></g></svg>